# xmcd
#
# Track frame offsets:
#	150
#	16970
#	39422
#	62397
#	82372
#	103835
#	124165
#	140852
#	158642
#	164142
#	184510
#
# Disc length: 2660 seconds
#
# Revision: 3
# Processed by: cddbd v1.5.2PL0 Copyright (c) Steve Scherf et al.
# Submitted via: audiograbber 1.83.01
#
DISCID=970a620b
DTITLE=Jolene - The pretty dive
DYEAR=2001
DGENRE=Country
TTITLE0=Genius, genius
TTITLE1=Discotheque
TTITLE2=Break
TTITLE3=New refrain Detritus
TTITLE4=Me again
TTITLE5=Falling up
TTITLE6=Shiny tongue
TTITLE7=Cry sixty
TTITLE8=Cheap day nocturne
TTITLE9=Every dream is lovely
TTITLE10=Upstairs at The Flying H
EXTD=
EXTT0=
EXTT1=
EXTT2=
EXTT3=
EXTT4=
EXTT5=
EXTT6=
EXTT7=
EXTT8=
EXTT9=
EXTT10=
PLAYORDER=
